<?xml version="1.0" encoding="UTF-8" standalone="no"?>
<svg width="385px" height="103px" viewBox="0 0 385 103" version="1.1" xmlns="http://www.w3.org/2000/svg" xmlns:xlink="http://www.w3.org/1999/xlink">
    <!-- Generator: Sketch 42 (36781) - http://www.bohemiancoding.com/sketch -->
    <title>Dan&amp;Kima</title>
    <desc>Created with Sketch.</desc>
    <defs></defs>
    <g id="Page-1" stroke="none" stroke-width="1" fill="none" fill-rule="evenodd">
        <g id="Desktop" transform="translate(-280.000000, -75.000000)" stroke="#B99E19" stroke-width="0.5" fill="#B99E19">
            <g id="Group" transform="translate(281.000000, 29.000000)">
                <path d="M9.9085,135.372 C14.6405,135.372 18.5535,138.193 23.2855,141.105 C28.2905,136.282 32.6585,128.001 35.8435,114.442 C35.0245,114.533 34.1145,114.533 33.2955,114.533 C15.4595,114.533 6.6325,100.155 6.6325,84.594 C6.6325,66.303 18.7355,46.465 42.4865,46.465 C65.6005,46.465 75.7925,69.033 75.7925,93.239 C75.7925,119.902 63.2345,148.112 41.9405,148.112 C33.7505,148.112 28.1085,145.473 23.4675,142.743 C18.7355,146.747 13.3665,148.112 7.9065,148.112 C2.7195,148.112 -0.2835,145.018 -0.2835,141.833 C-0.2835,138.648 2.8105,135.372 9.9085,135.372 Z M41.9405,147.202 C61.6875,147.202 73.6085,119.447 73.6085,93.148 C73.6085,69.306 63.9625,47.284 41.6675,47.284 C19.7365,47.284 8.4525,66.667 8.4525,84.503 C8.4525,99.609 16.6425,113.623 33.3865,113.623 C34.2965,113.623 35.1155,113.623 36.0255,113.532 C37.2085,108.072 38.2095,101.793 39.0285,94.604 C40.9395,77.496 43.3965,66.121 45.8535,58.841 L47.4005,59.296 C44.8525,66.485 42.3955,77.951 40.6665,94.604 C39.9385,101.702 38.9375,107.89 37.7545,113.35 C50.4035,111.348 56.5915,100.974 56.5915,92.056 C56.5915,87.87 55.2265,84.048 52.5875,81.591 L53.4065,80.408 C56.5005,82.956 58.0475,87.142 58.0475,91.692 C58.0475,101.247 51.3135,112.349 37.4815,114.26 C34.2965,128.365 29.7465,136.828 24.3775,141.833 C29.0185,144.654 34.3875,147.202 41.9405,147.202 Z M8.1795,147.202 C13.0935,147.202 17.9165,145.837 22.2845,142.015 C17.6435,139.103 14.0035,136.282 9.7265,136.282 C4.0845,136.282 1.3545,139.194 1.3545,142.015 C1.3545,144.654 3.7205,147.202 8.1795,147.202 Z M99.7255,93.239 L101.2725,85.504 L103.0925,85.504 C100.5445,99.154 97.4505,114.442 97.4505,121.813 C97.4505,124.634 97.9055,126.272 98.9975,126.272 C102.1825,126.272 105.9135,117.991 110.9185,104.887 C111.2825,104.887 111.6465,105.069 111.6465,105.433 L111.6465,105.615 C106.0955,120.175 103.0015,127.455 98.8155,127.455 C96.7225,127.455 95.9035,124.998 95.9035,120.721 C95.9035,117.809 96.2675,114.078 96.9045,109.801 C93.6285,119.993 89.7155,127.455 85.0745,127.455 C81.7075,127.455 80.3425,123.178 80.3425,117.354 C80.3425,104.796 86.7125,85.231 94.3565,85.231 C98.2695,85.231 99.5435,89.144 99.7255,93.239 Z M94.2655,85.959 C88.0775,85.959 81.7985,106.434 81.7985,118.264 C81.7985,123.178 82.8905,126.545 85.4385,126.545 C91.0805,126.545 98.8155,104.432 98.8155,94.877 C98.8155,89.508 97.2685,85.959 94.2655,85.959 Z M130.2105,90.964 C130.2105,97.789 123.3855,115.17 123.3855,122.632 C123.3855,124.816 124.2045,126.272 125.8425,126.272 C129.5735,126.272 134.0325,115.352 138.0365,104.887 C138.4005,104.887 138.7645,105.069 138.7645,105.433 L138.7645,105.615 C134.7605,115.989 130.6655,127.455 125.6605,127.455 C122.8395,127.455 121.5655,125.453 121.5655,122.541 C121.5655,115.534 128.4815,96.151 128.4815,90.964 C128.4815,87.688 127.7535,86.05 125.7515,86.05 C121.1105,86.05 115.1955,98.79 111.3735,109.801 L108.2795,127 L106.2775,127 C106.6415,124.452 107.6425,119.72 109.1895,114.26 C110.9185,104.887 113.1935,91.965 113.7395,85.504 L115.6505,85.504 C115.5595,86.596 114.0125,95.423 112.2835,104.705 C116.1055,94.604 121.2015,85.049 126.2065,85.049 C128.8455,85.049 130.2105,87.506 130.2105,90.964 Z M165.3365,96.151 L165.5185,95.332 L181.0795,95.332 L180.8975,96.151 C180.8975,96.151 177.5305,96.242 172.6165,96.242 C172.5255,107.435 170.7965,116.99 165.7005,122.45 C170.2505,129.821 175.4375,134.826 180.5335,134.826 C183.7185,134.826 185.7205,133.279 187.1765,131.368 L188.2685,132.278 C186.2665,134.644 184.3555,135.554 180.6245,135.554 C174.8005,135.554 169.2495,130.731 164.4265,123.633 C161.7875,125.817 158.4205,127 154.2345,127 C145.7715,127 141.4945,120.903 141.4945,112.531 C141.4945,105.342 144.6795,96.515 150.9585,88.598 C150.3215,84.685 149.9575,80.954 149.9575,77.496 C149.9575,67.85 152.7785,60.934 159.6035,60.934 C165.4275,60.934 168.0665,65.393 168.0665,70.216 C168.0665,73.947 166.4285,77.769 163.5165,79.953 L162.6975,78.952 C165.1545,76.859 166.6105,73.219 166.6105,69.852 C166.6105,65.666 164.4265,61.844 159.5125,61.844 C153.9615,61.844 151.5955,67.668 151.5955,75.949 C151.5955,89.053 157.3285,108.436 164.9725,121.358 C169.2495,116.171 170.7055,107.071 170.7965,96.242 C169.0675,96.242 167.3385,96.242 165.3365,96.151 Z M154.4165,126.181 C158.3295,126.181 161.4235,124.907 163.7895,122.723 C157.8745,113.623 153.2335,101.065 151.1405,89.69 C146.2265,95.696 143.3145,104.432 143.3145,111.803 C143.3145,119.72 146.6815,126.181 154.4165,126.181 Z M196.9135,147.202 C219.0265,147.202 225.7605,127.728 230.8565,102.066 L228.5815,102.066 L228.8545,100.519 C229.5825,100.519 230.3105,100.61 231.0385,100.883 C233.8595,86.778 236.2255,70.853 240.5025,55.383 C230.2195,62.572 210.6545,60.024 210.6545,74.402 C210.6545,79.953 214.7495,83.32 221.0285,83.32 L220.6645,85.595 C213.4755,85.049 208.9255,81.318 208.9255,74.402 C208.9255,58.841 233.4045,59.933 240.9575,53.472 L243.0505,46.738 L245.5985,47.375 C245.2345,50.105 243.9605,52.198 242.1405,53.927 C237.8635,69.397 235.8615,85.959 233.0405,100.792 C255.7905,95.332 257.1555,46.465 274.6275,46.465 C278.3585,46.465 280.5425,49.195 280.5425,52.107 L280.5425,52.653 L278.8135,52.653 L278.8135,52.198 C278.8135,49.286 277.1755,47.557 274.5365,47.557 C259.5215,47.557 258.0655,96.879 232.9495,101.702 C244.7795,108.891 250.8765,147.202 269.8045,147.202 C276.6295,147.202 279.3595,142.288 279.3595,137.647 L281.4525,137.738 C281.4525,142.379 278.3585,148.294 269.8955,148.294 C248.7835,148.294 243.4145,110.347 232.6765,102.612 C227.8535,128.092 220.6645,148.112 196.5495,148.112 C179.8965,148.112 172.4345,135.827 172.4345,123.087 C172.4345,109.346 181.1705,95.059 196.6405,95.059 C206.1045,95.059 211.9285,102.976 211.9285,111.257 C211.9285,114.988 210.7455,118.901 208.1065,122.086 L206.7415,120.994 C209.2895,117.627 210.4725,114.078 210.4725,110.711 C210.4725,102.794 204.2845,95.969 196.5495,95.969 C182.6265,95.969 174.5275,109.983 174.5275,123.269 C174.5275,135.554 181.3525,147.202 196.9135,147.202 Z M264.7085,76.222 C264.7085,75.585 264.8905,74.584 265.8005,74.584 C266.6195,74.584 266.9835,75.221 266.9835,75.949 C266.9835,76.859 266.5285,77.496 265.8005,77.496 C264.9815,77.496 264.7085,76.95 264.7085,76.222 Z M263.2525,85.504 L265.0725,85.504 C262.5245,99.154 259.4305,114.442 259.4305,121.813 C259.4305,124.634 259.8855,126.272 260.9775,126.272 C264.1625,126.272 267.8935,117.991 272.8985,104.887 C273.2625,104.887 273.6265,105.069 273.6265,105.433 L273.6265,105.615 C268.0755,120.175 264.9815,127.455 260.7955,127.455 C258.7025,127.455 257.8835,124.725 257.8835,120.357 C257.8835,112.258 260.7045,98.335 263.2525,85.504 Z M282.5445,127 L280.5425,127 C282.7265,116.99 287.1855,94.695 287.1855,90.782 C287.1855,88.871 287.1855,86.05 285.1835,86.05 C282.0895,86.05 277.6305,96.333 274.1725,106.434 C272.2615,116.535 270.2595,126.636 270.1685,127 L268.1665,127 C268.1665,126.636 274.4455,97.607 276.1745,85.504 L278.0855,85.504 C277.9945,86.414 276.8115,92.784 275.3555,100.155 C278.5405,91.601 281.9985,85.049 285.8205,85.049 C287.9135,85.231 288.7325,87.324 288.7325,90.782 C288.7325,92.966 288.2775,96.788 287.5495,101.156 C290.2795,91.783 294.1015,85.049 298.5605,85.049 C300.9265,85.049 302.5645,87.506 302.5645,90.964 C302.5645,97.789 295.7395,115.443 295.7395,122.905 C295.7395,125.18 296.5585,126.272 298.1965,126.272 C302.0185,126.272 306.3865,115.352 310.3905,104.887 C310.7545,104.887 311.1185,105.069 311.1185,105.433 L311.1185,105.615 C307.1145,115.989 302.9285,127.455 298.0145,127.455 C295.1935,127.455 293.9195,125.726 293.9195,122.814 C293.9195,115.807 300.8355,96.151 300.8355,90.964 C300.8355,87.688 299.9255,85.959 298.1055,85.959 C294.3745,85.959 289.4605,95.605 286.4575,107.89 C285.0925,115.625 283.3635,123.451 282.5445,127 Z M357.8015,87.233 L357.8015,85.413 C375.0915,85.413 383.5545,99.791 383.5545,113.259 C383.5545,128.638 372.1795,145.473 350.6125,145.473 C333.9595,145.473 324.8595,133.825 324.8595,116.535 C324.8595,114.351 325.0415,112.167 325.3145,109.801 C322.0385,119.993 318.1255,127.455 313.4845,127.455 C310.1175,127.455 308.7525,123.178 308.7525,117.354 C308.7525,104.796 315.1225,85.231 322.7665,85.231 C326.6795,85.231 327.9535,89.144 328.1355,93.239 L329.6825,85.504 L331.5025,85.504 C329.3185,97.152 328.4995,101.793 327.4985,109.892 C327.2255,112.349 327.0435,114.715 327.0435,116.99 C327.0435,133.825 335.3245,144.563 350.8855,144.563 C371.7245,144.563 382.0985,128.183 382.0985,113.168 C382.0985,100.974 373.8175,87.233 357.8015,87.233 Z M322.6755,85.959 C316.4875,85.959 310.2085,106.434 310.2085,118.264 C310.2085,123.178 311.3005,126.545 313.8485,126.545 C319.4905,126.545 327.2255,104.432 327.2255,94.877 C327.2255,89.508 325.6785,85.959 322.6755,85.959 Z" id="Dan&amp;Kima"></path>
            </g>
        </g>
    </g>
</svg>