<?xml version="1.0" encoding="UTF-8" standalone="no"?>
<svg width="513px" height="103px" viewBox="0 0 513 103" version="1.1" xmlns="http://www.w3.org/2000/svg" xmlns:xlink="http://www.w3.org/1999/xlink">
    <!-- Generator: Sketch 42 (36781) - http://www.bohemiancoding.com/sketch -->
    <title>Other Information</title>
    <desc>Created with Sketch.</desc>
    <defs></defs>
    <g id="Page-1" stroke="none" stroke-width="1" fill="none" fill-rule="evenodd">
        <g id="Group" transform="translate(-3.000000, -46.000000)" stroke="#B99E19" stroke-width="0.5" fill="#B99E19">
            <path d="M84.7365,50.833 L85.2825,49.741 C92.8355,53.29 96.2935,65.029 96.2935,79.225 C96.2935,108.436 81.6425,148.112 58.1645,148.112 C43.6955,148.112 37.6895,132.824 37.5985,114.26 C36.5065,114.351 35.3235,114.351 34.2315,114.351 C12.7555,114.351 3.3825,101.338 3.3825,88.871 C3.3825,77.496 11.2085,66.667 24.5855,66.667 C28.0435,66.667 30.1365,67.304 32.8665,68.942 L31.7745,70.489 C29.7725,69.124 27.4065,68.487 24.6765,68.487 C12.1185,68.487 4.9295,78.497 4.9295,89.053 C4.9295,100.883 13.9385,113.441 34.2315,113.441 C35.3235,113.441 36.5065,113.441 37.5985,113.35 C37.7805,83.866 52.5225,46.465 72.5425,46.465 C81.1875,46.465 85.2825,53.381 85.2825,62.845 C85.2825,81.773 68.6295,110.984 39.3275,114.078 C39.3275,132.278 44.6055,147.202 58.0735,147.202 C80.2775,147.202 94.3825,107.526 94.3825,78.77 C94.3825,65.484 91.3795,54.473 84.7365,50.833 Z M72.5425,47.375 C53.8875,47.375 39.7825,84.23 39.3275,113.168 C68.0835,110.074 83.3715,81.227 83.3715,62.754 C83.3715,53.836 79.8225,47.375 72.5425,47.375 Z M105.2115,126.272 C108.3965,126.272 112.1275,117.991 117.1325,104.887 C117.4965,104.887 117.8605,105.069 117.8605,105.433 L117.8605,105.615 C112.3095,120.175 109.2155,127.455 105.0295,127.455 C102.4815,127.455 101.3895,123.087 101.3895,116.626 C101.3895,108.345 103.0275,96.788 105.3025,86.323 L99.8425,86.323 L100.0245,85.504 L105.4845,85.504 C108.0325,74.311 111.1265,63.391 114.3115,63.391 C115.4945,63.391 116.4045,64.665 116.4045,66.849 C116.4045,71.581 113.7655,79.043 111.5815,85.504 L115.7675,85.504 L115.5855,86.323 L111.3085,86.323 C108.2145,95.059 104.8475,103.158 103.8465,105.524 C103.2095,110.438 102.8455,114.897 102.8455,118.446 C102.8455,123.178 103.4825,126.272 105.2115,126.272 Z M115.3125,67.213 C115.3125,66.849 115.4035,66.576 115.4035,66.212 C115.4035,65.029 115.0395,64.21 114.3115,64.21 C112.4915,64.21 109.4885,75.039 107.3045,85.504 L110.3985,85.504 C112.4915,79.225 114.4935,72.4 115.3125,67.213 Z M110.1255,86.323 L107.1225,86.323 C106.0305,91.601 104.9385,97.152 104.2105,102.43 C105.3935,99.427 107.8505,93.239 110.1255,86.323 Z M115.4945,117.445 C118.1335,97.334 123.2295,55.383 130.8735,55.383 C132.1475,55.383 132.9665,56.657 132.9665,59.023 C132.9665,68.396 121.4095,98.335 118.6795,105.251 C118.3155,107.526 117.9515,109.801 117.6785,112.076 C121.6825,100.155 128.0525,85.231 133.6035,85.231 C135.9695,85.231 137.6075,87.506 137.6075,90.964 C137.6075,97.789 130.7825,114.26 130.7825,121.722 C130.7825,124.361 131.6015,126.272 133.2395,126.272 C136.3335,126.272 141.4295,115.352 145.4335,104.887 C145.7975,104.887 146.1615,105.069 146.1615,105.433 L146.1615,105.615 C142.1575,115.989 137.4255,127.455 133.0575,127.455 C130.2365,127.455 128.9625,125.271 128.9625,121.631 C128.9625,114.624 135.8785,96.151 135.8785,90.964 C135.8785,87.688 134.9685,86.232 133.1485,86.232 C128.9625,86.232 121.1365,104.068 117.1325,115.716 C116.6775,119.629 116.1315,123.36 115.5855,127 L113.6745,127 C113.6745,127 114.3115,122.45 115.4945,117.445 Z M131.9655,58.477 C131.9655,56.93 131.6925,56.202 130.7825,56.202 C126.7785,56.202 121.9555,83.229 119.3165,100.701 C122.6835,91.965 131.9655,67.122 131.9655,58.477 Z M153.0775,126.545 C159.5385,126.545 164.7255,112.531 167.6375,104.887 C168.0015,104.887 168.3655,105.069 168.3655,105.433 L168.3655,105.615 C165.6355,112.895 160.7215,127.455 152.8955,127.455 C146.8895,127.455 144.5235,121.176 144.5235,113.441 C144.5235,101.065 150.6205,85.049 157.8095,85.049 C160.2665,85.049 161.4495,86.596 161.4495,88.871 C161.4495,93.33 156.8995,100.519 147.4355,105.16 L147.1625,105.342 C146.6165,108.436 146.2525,111.53 146.2525,114.442 C146.2525,121.267 148.1635,126.545 153.0775,126.545 Z M157.7185,86.05 C153.5325,86.05 149.4375,94.695 147.4355,104.068 C156.0805,98.881 159.8115,92.238 159.8115,88.689 C159.8115,87.051 159.0835,86.05 157.7185,86.05 Z M173.2795,124.816 C173.2795,118.264 177.3745,108.982 177.3745,102.066 C177.3745,96.151 174.3715,92.511 172.8245,88.507 C171.5505,94.695 170.0035,101.247 168.3655,105.615 C168.3655,105.615 167.5465,105.615 167.5465,105.16 C167.5465,105.069 167.6375,104.978 167.6375,104.887 C169.5485,99.882 171.0045,92.693 172.0965,86.232 C171.6415,83.957 171.4595,81.591 171.4595,79.498 C171.4595,76.677 171.8235,74.22 172.3695,72.673 L174.8265,72.946 C174.9175,73.674 174.9175,74.402 174.9175,75.13 C174.9175,78.861 173.9165,82.774 173.2795,86.141 L173.0975,86.96 C174.5535,90.964 179.0125,95.059 179.0125,102.066 C179.0125,109.619 175.0995,118.628 175.0995,124.907 C175.0995,136.1 180.8325,140.65 189.7505,140.65 C199.5785,140.65 204.8565,132.096 204.8565,124.27 C204.8565,119.811 203.2185,115.716 199.7605,113.35 L200.9435,111.894 C204.5835,114.351 206.3125,118.719 206.3125,123.451 C206.3125,132.096 200.4885,141.56 189.6595,141.56 C179.5585,141.56 173.2795,136.646 173.2795,124.816 Z M272.8335,46.738 L274.2895,47.102 C274.1075,48.558 273.4705,50.287 272.9245,51.288 C265.4625,82.41 261.1855,109.437 255.9985,147.657 L254.1785,147.657 C259.8205,110.165 263.6425,84.321 271.1045,53.472 C259.2745,65.939 227.5155,76.859 227.5155,98.79 C227.5155,108.982 233.3395,115.625 242.5305,115.625 C249.9015,115.625 253.8145,109.619 253.8145,103.977 C253.8145,100.064 251.9035,96.242 247.8085,94.877 L248.5365,93.239 C253.1775,94.877 255.4525,99.063 255.4525,103.522 C255.4525,109.892 250.9025,116.535 242.5305,116.535 C232.7025,116.535 225.6955,109.892 225.6955,98.79 C225.6955,76.404 261.1855,63.482 271.4685,51.925 C271.8325,49.559 272.3785,48.103 272.8335,46.738 Z M290.2145,90.964 C290.2145,97.789 283.3895,115.17 283.3895,122.632 C283.3895,124.816 284.2085,126.272 285.8465,126.272 C289.5775,126.272 294.0365,115.352 298.0405,104.887 C298.4045,104.887 298.7685,105.069 298.7685,105.433 L298.7685,105.615 C294.7645,115.989 290.6695,127.455 285.6645,127.455 C282.8435,127.455 281.5695,125.453 281.5695,122.541 C281.5695,115.534 288.4855,96.151 288.4855,90.964 C288.4855,87.688 287.7575,86.05 285.7555,86.05 C281.1145,86.05 275.1995,98.79 271.3775,109.801 L268.2835,127 L266.2815,127 C266.6455,124.452 267.6465,119.72 269.1935,114.26 C270.9225,104.887 273.1975,91.965 273.7435,85.504 L275.6545,85.504 C275.5635,86.596 274.0165,95.423 272.2875,104.705 C276.1095,94.604 281.2055,85.049 286.2105,85.049 C288.8495,85.049 290.2145,87.506 290.2145,90.964 Z M298.9505,148.112 C296.4025,148.112 294.3095,146.292 294.3095,138.739 C294.3095,118.992 303.1365,74.493 308.0505,61.116 C309.4155,57.294 311.4175,55.383 312.7825,55.383 C314.0565,55.383 314.8755,56.657 314.8755,59.023 C314.8755,68.578 301.9535,101.338 299.4055,107.617 C298.5865,112.713 297.8585,117.627 297.3125,122.268 C299.8605,121.267 308.4145,116.08 312.6915,104.887 C313.0555,104.887 313.4195,105.069 313.4195,105.433 L313.4195,105.615 C309.6885,115.17 302.0445,121.358 298.0405,122.905 C303.4095,126.454 305.5025,132.005 305.5025,137.01 C305.5025,142.925 302.5905,148.112 298.9505,148.112 Z M298.6775,147.202 C301.4075,147.202 304.0465,142.47 304.0465,136.828 C304.0465,132.187 302.2265,126.909 297.1305,123.269 C296.4025,129.457 295.6745,135.19 295.6745,139.376 C295.6745,144.108 296.6755,147.202 298.6775,147.202 Z M313.8745,58.477 C313.8745,56.93 313.6015,56.202 312.6915,56.202 C309.5975,56.202 304.7745,77.405 300.3155,102.521 C303.6825,94.058 313.8745,67.395 313.8745,58.477 Z M342.0845,104.887 C342.4485,104.887 342.8125,105.069 342.8125,105.433 L342.8125,105.615 C340.1735,112.622 335.7145,116.99 330.3455,117.263 C327.7975,123.178 324.1575,127.455 320.0625,127.455 C314.4205,127.455 311.9635,120.721 311.9635,112.713 C311.9635,107.526 312.9645,101.793 314.7845,96.879 L316.5135,97.243 C314.6935,102.248 313.6015,108.254 313.6015,113.441 C313.6015,120.721 315.6945,126.545 320.4265,126.545 C323.6115,126.545 326.5235,122.632 328.7075,117.263 C320.4265,116.717 317.2415,109.801 317.2415,102.521 C317.2415,94.149 321.5185,85.231 327.0695,85.231 C332.1655,85.231 334.3495,90.964 334.3495,98.153 C334.3495,103.977 332.9845,110.802 330.7095,116.353 C335.1685,115.898 339.3545,112.076 342.0845,104.887 Z M326.9785,85.959 C322.5195,85.959 318.6975,94.513 318.6975,102.612 C318.6975,109.437 321.5185,115.989 329.0715,116.353 C331.1645,110.62 332.5295,103.522 332.5295,97.607 C332.5295,91.055 330.8915,85.959 326.9785,85.959 Z M347.6355,72.673 L349.2735,72.946 C349.4555,77.86 348.5455,81.864 347.7265,86.141 L347.5445,86.96 C349.0005,90.964 353.4595,95.059 353.4595,102.066 C353.4595,109.619 349.0915,116.808 349.0915,123.087 C349.0915,125.18 350.0015,126.272 351.2755,126.272 C354.4605,126.272 358.1915,117.991 363.1965,104.887 C363.5605,104.887 363.9245,105.069 363.9245,105.433 L363.9245,105.615 C358.3735,120.175 355.2795,127.455 351.0935,127.455 C348.6365,127.455 347.4535,125.635 347.4535,122.268 C347.4535,115.716 351.8215,108.982 351.8215,102.066 C351.8215,96.151 348.8185,92.511 347.2715,88.507 C345.9975,94.695 344.4505,101.247 342.8125,105.615 C342.8125,105.615 341.9935,105.615 341.9935,105.16 C341.9935,105.069 342.0845,104.978 342.0845,104.887 C343.9955,99.882 345.4515,92.693 346.5435,86.232 C345.9975,81.864 346.6345,76.677 347.6355,72.673 Z M372.8425,127 L370.8405,127 C373.0245,116.99 377.4835,94.695 377.4835,90.782 C377.4835,88.871 377.4835,86.05 375.4815,86.05 C372.3875,86.05 367.9285,96.333 364.4705,106.434 C362.5595,116.535 360.5575,126.636 360.4665,127 L358.4645,127 C358.4645,126.636 364.7435,97.607 366.4725,85.504 L368.3835,85.504 C368.2925,86.414 367.1095,92.784 365.6535,100.155 C368.8385,91.601 372.2965,85.049 376.1185,85.049 C378.2115,85.231 379.0305,87.324 379.0305,90.782 C379.0305,92.966 378.5755,96.788 377.8475,101.156 C380.5775,91.783 384.3995,85.049 388.8585,85.049 C391.2245,85.049 392.8625,87.506 392.8625,90.964 C392.8625,97.789 386.0375,115.443 386.0375,122.905 C386.0375,125.18 386.8565,126.272 388.4945,126.272 C392.3165,126.272 396.6845,115.352 400.6885,104.887 C401.0525,104.887 401.4165,105.069 401.4165,105.433 L401.4165,105.615 C397.4125,115.989 393.2265,127.455 388.3125,127.455 C385.4915,127.455 384.2175,125.726 384.2175,122.814 C384.2175,115.807 391.1335,96.151 391.1335,90.964 C391.1335,87.688 390.2235,85.959 388.4035,85.959 C384.6725,85.959 379.7585,95.605 376.7555,107.89 C375.3905,115.625 373.6615,123.451 372.8425,127 Z M418.4335,93.239 L419.9805,85.504 L421.8005,85.504 C419.2525,99.154 416.1585,114.442 416.1585,121.813 C416.1585,124.634 416.6135,126.272 417.7055,126.272 C420.8905,126.272 424.6215,117.991 429.6265,104.887 C429.9905,104.887 430.3545,105.069 430.3545,105.433 L430.3545,105.615 C424.8035,120.175 421.7095,127.455 417.5235,127.455 C415.4305,127.455 414.6115,124.998 414.6115,120.721 C414.6115,117.809 414.9755,114.078 415.6125,109.801 C412.3365,119.993 408.4235,127.455 403.7825,127.455 C400.4155,127.455 399.0505,123.178 399.0505,117.354 C399.0505,104.796 405.4205,85.231 413.0645,85.231 C416.9775,85.231 418.2515,89.144 418.4335,93.239 Z M412.9735,85.959 C406.7855,85.959 400.5065,106.434 400.5065,118.264 C400.5065,123.178 401.5985,126.545 404.1465,126.545 C409.7885,126.545 417.5235,104.432 417.5235,94.877 C417.5235,89.508 415.9765,85.959 412.9735,85.959 Z M432.6295,126.272 C435.8145,126.272 439.5455,117.991 444.5505,104.887 C444.9145,104.887 445.2785,105.069 445.2785,105.433 L445.2785,105.615 C439.7275,120.175 436.6335,127.455 432.4475,127.455 C429.8995,127.455 428.8075,123.087 428.8075,116.626 C428.8075,108.345 430.4455,96.788 432.7205,86.323 L427.2605,86.323 L427.4425,85.504 L432.9025,85.504 C435.4505,74.311 438.5445,63.391 441.7295,63.391 C442.9125,63.391 443.8225,64.665 443.8225,66.849 C443.8225,71.581 441.1835,79.043 438.9995,85.504 L443.1855,85.504 L443.0035,86.323 L438.7265,86.323 C435.6325,95.059 432.2655,103.158 431.2645,105.524 C430.6275,110.438 430.2635,114.897 430.2635,118.446 C430.2635,123.178 430.9005,126.272 432.6295,126.272 Z M442.7305,67.213 C442.7305,66.849 442.8215,66.576 442.8215,66.212 C442.8215,65.029 442.4575,64.21 441.7295,64.21 C439.9095,64.21 436.9065,75.039 434.7225,85.504 L437.8165,85.504 C439.9095,79.225 441.9115,72.4 442.7305,67.213 Z M437.5435,86.323 L434.5405,86.323 C433.4485,91.601 432.3565,97.152 431.6285,102.43 C432.8115,99.427 435.2685,93.239 437.5435,86.323 Z M449.6465,76.222 C449.6465,76.95 449.9195,77.496 450.7385,77.496 C451.4665,77.496 451.9215,76.859 451.9215,75.949 C451.9215,75.221 451.5575,74.584 450.7385,74.584 C449.8285,74.584 449.6465,75.585 449.6465,76.222 Z M448.1905,85.504 L450.0105,85.504 C447.4625,99.154 444.3685,114.442 444.3685,121.813 C444.3685,124.634 444.8235,126.272 445.9155,126.272 C449.1005,126.272 452.8315,117.991 457.8365,104.887 C458.2005,104.887 458.5645,105.069 458.5645,105.433 L458.5645,105.615 C453.0135,120.175 449.9195,127.455 445.7335,127.455 C443.6405,127.455 442.8215,124.725 442.8215,120.357 C442.8215,112.258 445.6425,98.335 448.1905,85.504 Z M487.2295,104.887 C487.5935,104.887 487.9575,105.069 487.9575,105.433 L487.9575,105.615 C485.3185,112.622 480.8595,116.99 475.4905,117.263 C472.9425,123.178 469.3025,127.455 465.2075,127.455 C459.5655,127.455 457.1085,120.721 457.1085,112.713 C457.1085,107.526 458.1095,101.793 459.9295,96.879 L461.6585,97.243 C459.8385,102.248 458.7465,108.254 458.7465,113.441 C458.7465,120.721 460.8395,126.545 465.5715,126.545 C468.7565,126.545 471.6685,122.632 473.8525,117.263 C465.5715,116.717 462.3865,109.801 462.3865,102.521 C462.3865,94.149 466.6635,85.231 472.2145,85.231 C477.3105,85.231 479.4945,90.964 479.4945,98.153 C479.4945,103.977 478.1295,110.802 475.8545,116.353 C480.3135,115.898 484.4995,112.076 487.2295,104.887 Z M472.1235,85.959 C467.6645,85.959 463.8425,94.513 463.8425,102.612 C463.8425,109.437 466.6635,115.989 474.2165,116.353 C476.3095,110.62 477.6745,103.522 477.6745,97.607 C477.6745,91.055 476.0365,85.959 472.1235,85.959 Z M506.5215,90.964 C506.5215,97.789 499.6965,115.17 499.6965,122.632 C499.6965,124.816 500.5155,126.272 502.1535,126.272 C505.8845,126.272 510.3435,115.352 514.3475,104.887 C514.7115,104.887 515.0755,105.069 515.0755,105.433 L515.0755,105.615 C511.0715,115.989 506.9765,127.455 501.9715,127.455 C499.1505,127.455 497.8765,125.453 497.8765,122.541 C497.8765,115.534 504.7925,96.151 504.7925,90.964 C504.7925,87.688 504.0645,86.05 502.0625,86.05 C497.4215,86.05 491.5065,98.79 487.6845,109.801 L484.5905,127 L482.5885,127 C482.9525,124.452 483.9535,119.72 485.5005,114.26 C487.2295,104.887 489.5045,91.965 490.0505,85.504 L491.9615,85.504 C491.8705,86.596 490.3235,95.423 488.5945,104.705 C492.4165,94.604 497.5125,85.049 502.5175,85.049 C505.1565,85.049 506.5215,87.506 506.5215,90.964 Z" id="Other-Information"></path>
        </g>
    </g>
</svg>