<?xml version="1.0" encoding="UTF-8" standalone="no"?>
<svg width="432px" height="110px" viewBox="0 0 432 110" version="1.1" xmlns="http://www.w3.org/2000/svg" xmlns:xlink="http://www.w3.org/1999/xlink">
    <!-- Generator: Sketch 42 (36781) - http://www.bohemiancoding.com/sketch -->
    <title>Artboard</title>
    <desc>Created with Sketch.</desc>
    <defs></defs>
    <g id="Page-1" stroke="none" stroke-width="1" fill="none" fill-rule="evenodd">
        <g id="Artboard" stroke="#B99E19" stroke-width="0.5" fill="#B99E19">
            <path d="M82.1405,5.833 L82.6865,4.741 C90.2395,8.29 93.6975,20.029 93.6975,34.225 C93.6975,63.436 79.0465,103.112 55.5685,103.112 C41.0995,103.112 35.0935,87.824 35.0025,69.26 C33.9105,69.351 32.7275,69.351 31.6355,69.351 C10.1595,69.351 0.7865,56.338 0.7865,43.871 C0.7865,32.496 8.6125,21.667 21.9895,21.667 C25.4475,21.667 27.5405,22.304 30.2705,23.942 L29.1785,25.489 C27.1765,24.124 24.8105,23.487 22.0805,23.487 C9.5225,23.487 2.3335,33.497 2.3335,44.053 C2.3335,55.883 11.3425,68.441 31.6355,68.441 C32.7275,68.441 33.9105,68.441 35.0025,68.35 C35.1845,38.866 49.9265,1.465 69.9465,1.465 C78.5915,1.465 82.6865,8.381 82.6865,17.845 C82.6865,36.773 66.0335,65.984 36.7315,69.078 C36.7315,87.278 42.0095,102.202 55.4775,102.202 C77.6815,102.202 91.7865,62.526 91.7865,33.77 C91.7865,20.484 88.7835,9.473 82.1405,5.833 Z M69.9465,2.375 C51.2915,2.375 37.1865,39.23 36.7315,68.168 C65.4875,65.074 80.7755,36.227 80.7755,17.754 C80.7755,8.836 77.2265,2.375 69.9465,2.375 Z M103.3435,40.504 L105.1635,40.504 C102.6155,54.063 99.2485,68.714 99.2485,76.267 C99.2485,79.543 99.8855,81.363 101.4325,81.363 C105.0725,81.363 110.8055,70.716 113.4445,59.341 C114.4455,53.335 115.7195,46.874 116.9935,40.504 L118.8135,40.504 C116.2655,54.154 113.1715,69.442 113.1715,76.813 C113.1715,79.634 113.6265,81.272 114.7185,81.272 C117.9035,81.272 121.6345,72.991 126.6395,59.887 C127.0035,59.887 127.3675,60.069 127.3675,60.433 L127.3675,60.615 C121.8165,75.175 118.7225,82.455 114.5365,82.455 C112.4435,82.455 111.6245,79.725 111.6245,75.357 C111.6245,73.082 111.8975,70.261 112.2615,67.167 C109.1675,75.903 104.6175,82.455 101.1595,82.455 C98.7935,82.455 97.8835,79.543 97.8835,75.084 C97.8835,66.985 100.7955,53.426 103.3435,40.504 Z M132.2815,79.816 C132.2815,73.264 136.3765,63.982 136.3765,57.066 C136.3765,51.151 133.3735,47.511 131.8265,43.507 C130.5525,49.695 129.0055,56.247 127.3675,60.615 C127.3675,60.615 126.5485,60.615 126.5485,60.16 C126.5485,60.069 126.6395,59.978 126.6395,59.887 C128.5505,54.882 130.0065,47.693 131.0985,41.232 C130.6435,38.957 130.4615,36.591 130.4615,34.498 C130.4615,31.677 130.8255,29.22 131.3715,27.673 L133.8285,27.946 C133.9195,28.674 133.9195,29.402 133.9195,30.13 C133.9195,33.861 132.9185,37.774 132.2815,41.141 L132.0995,41.96 C133.5555,45.964 138.0145,50.059 138.0145,57.066 C138.0145,64.619 134.1015,73.628 134.1015,79.907 C134.1015,91.1 139.8345,95.65 148.7525,95.65 C158.5805,95.65 163.8585,87.096 163.8585,79.27 C163.8585,74.811 162.2205,70.716 158.7625,68.35 L159.9455,66.894 C163.5855,69.351 165.3145,73.719 165.3145,78.451 C165.3145,87.096 159.4905,96.56 148.6615,96.56 C138.5605,96.56 132.2815,91.646 132.2815,79.816 Z M259.8635,102.657 L258.3165,102.657 C255.3135,100.564 254.2215,91.555 254.2215,79.27 C254.2215,59.705 257.0425,31.95 259.8635,10.747 C248.8525,34.68 234.5655,101.656 234.3835,102.657 L233.1095,102.657 C228.4685,98.198 233.5645,50.514 228.1955,33.861 C223.4635,19.392 213.4535,10.747 200.3495,10.747 C180.5115,10.747 170.6835,25.671 170.6835,39.958 C170.6835,53.335 179.2375,66.257 196.1635,66.257 C212.0885,66.257 217.2755,52.334 217.2755,41.141 C217.2755,39.958 217.1845,38.775 217.0935,37.592 L218.7315,37.228 C218.8225,38.229 218.8225,39.23 218.8225,40.322 C218.8225,51.97 213.1805,67.167 196.2545,67.167 C178.1455,67.167 169.2275,54.063 169.2275,40.322 C169.2275,25.398 179.8745,9.837 200.6225,9.837 C214.0905,9.837 224.6465,18.755 229.6515,33.315 C232.4725,41.505 232.8365,57.157 232.8365,71.444 C232.8365,76.54 232.7455,81.454 232.7455,85.822 C232.7455,93.921 232.9275,99.836 233.9285,100.928 C234.5655,98.016 247.6695,35.408 259.7725,8.836 L261.3195,9.2 C258.8625,31.404 255.9505,60.069 255.9505,79.634 C255.9505,90.463 256.8605,98.562 259.2265,101.292 C271.2385,42.051 280.6115,0.373 303.9075,0.373 C309.2765,0.373 313.0075,2.557 315.8285,6.652 L314.1905,7.471 C311.9155,3.74 307.5475,1.829 303.0885,1.829 C281.6125,1.829 272.4215,41.232 259.8635,102.657 Z M289.2565,81.545 C295.7175,81.545 300.9045,67.531 303.8165,59.887 C304.1805,59.887 304.5445,60.069 304.5445,60.433 L304.5445,60.615 C301.8145,67.895 296.9005,82.455 289.0745,82.455 C283.0685,82.455 280.7025,76.176 280.7025,68.441 C280.7025,56.065 286.7995,40.049 293.9885,40.049 C296.4455,40.049 297.6285,41.596 297.6285,43.871 C297.6285,48.33 293.0785,55.519 283.6145,60.16 L283.3415,60.342 C282.7955,63.436 282.4315,66.53 282.4315,69.442 C282.4315,76.267 284.3425,81.545 289.2565,81.545 Z M293.8975,41.05 C289.7115,41.05 285.6165,49.695 283.6145,59.068 C292.2595,53.881 295.9905,47.238 295.9905,43.689 C295.9905,42.051 295.2625,41.05 293.8975,41.05 Z M328.5685,10.383 L330.0245,10.383 C327.2035,25.671 319.1955,66.53 319.1955,75.084 C319.1955,79.816 320.1055,81.272 321.3795,81.272 C324.5645,81.272 328.2955,72.991 333.3005,59.887 C333.6645,59.887 334.1195,60.069 334.1195,60.524 L334.1195,60.706 C328.5685,75.266 325.3835,82.455 321.1975,82.455 C318.7405,82.455 317.6485,79.998 317.6485,75.084 C317.6485,73.082 318.1035,68.987 318.8315,63.8 C315.5555,74.174 312.0065,82.455 306.9105,82.455 C303.5435,82.455 302.1785,78.178 302.1785,72.354 C302.1785,59.796 308.5485,40.231 316.1925,40.231 C319.5595,40.231 321.1975,43.143 321.7435,46.692 C323.7455,35.044 327.2945,16.935 328.5685,10.383 Z M316.1015,40.959 C309.9135,40.959 303.6345,61.434 303.6345,73.264 C303.6345,78.178 304.7265,81.545 307.2745,81.545 C311.2785,81.545 316.4655,70.079 319.8325,57.521 L320.6515,52.971 C320.7425,52.061 320.8335,51.06 320.8335,50.059 C320.8335,45.418 319.4685,40.959 316.1015,40.959 Z M358.0525,10.383 L359.5085,10.383 C356.6875,25.671 348.6795,66.53 348.6795,75.084 C348.6795,79.816 349.5895,81.272 350.8635,81.272 C354.0485,81.272 357.7795,72.991 362.7845,59.887 C363.1485,59.887 363.6035,60.069 363.6035,60.524 L363.6035,60.706 C358.0525,75.266 354.8675,82.455 350.6815,82.455 C348.2245,82.455 347.1325,79.998 347.1325,75.084 C347.1325,73.082 347.5875,68.987 348.3155,63.8 C345.0395,74.174 341.4905,82.455 336.3945,82.455 C333.0275,82.455 331.6625,78.178 331.6625,72.354 C331.6625,59.796 338.0325,40.231 345.6765,40.231 C349.0435,40.231 350.6815,43.143 351.2275,46.692 C353.2295,35.044 356.7785,16.935 358.0525,10.383 Z M345.5855,40.959 C339.3975,40.959 333.1185,61.434 333.1185,73.264 C333.1185,78.178 334.2105,81.545 336.7585,81.545 C340.7625,81.545 345.9495,70.079 349.3165,57.521 L350.1355,52.971 C350.2265,52.061 350.3175,51.06 350.3175,50.059 C350.3175,45.418 348.9525,40.959 345.5855,40.959 Z M367.8805,31.222 C367.8805,31.95 368.1535,32.496 368.9725,32.496 C369.7005,32.496 370.1555,31.859 370.1555,30.949 C370.1555,30.221 369.7915,29.584 368.9725,29.584 C368.0625,29.584 367.8805,30.585 367.8805,31.222 Z M366.4245,40.504 L368.2445,40.504 C365.6965,54.154 362.6025,69.442 362.6025,76.813 C362.6025,79.634 363.0575,81.272 364.1495,81.272 C367.3345,81.272 371.0655,72.991 376.0705,59.887 C376.4345,59.887 376.7985,60.069 376.7985,60.433 L376.7985,60.615 C371.2475,75.175 368.1535,82.455 363.9675,82.455 C361.8745,82.455 361.0555,79.725 361.0555,75.357 C361.0555,67.258 363.8765,53.335 366.4245,40.504 Z M395.3625,45.964 C395.3625,52.789 388.5375,70.17 388.5375,77.632 C388.5375,79.816 389.3565,81.272 390.9945,81.272 C394.7255,81.272 399.1845,70.352 403.1885,59.887 C403.5525,59.887 403.9165,60.069 403.9165,60.433 L403.9165,60.615 C399.9125,70.989 395.8175,82.455 390.8125,82.455 C387.9915,82.455 386.7175,80.453 386.7175,77.541 C386.7175,70.534 393.6335,51.151 393.6335,45.964 C393.6335,42.688 392.9055,41.05 390.9035,41.05 C386.2625,41.05 380.3475,53.79 376.5255,64.801 L373.4315,82 L371.4295,82 C371.7935,79.452 372.7945,74.72 374.3415,69.26 C376.0705,59.887 378.3455,46.965 378.8915,40.504 L380.8025,40.504 C380.7115,41.596 379.1645,50.423 377.4355,59.705 C381.2575,49.604 386.3535,40.049 391.3585,40.049 C393.9975,40.049 395.3625,42.506 395.3625,45.964 Z M430.9435,59.887 L431.1255,59.887 C431.3985,59.887 431.6715,60.069 431.6715,60.433 L431.6715,60.615 C427.4855,71.535 421.6615,78.36 416.3835,83.911 L412.9255,103.294 C412.1975,107.298 409.9225,109.664 407.1015,109.664 C404.9175,109.664 403.1885,107.389 403.1885,103.931 C403.1885,96.287 408.6485,90.736 414.3815,84.639 C415.5645,78.087 416.7475,71.08 417.8395,64.528 C414.7455,74.538 411.2875,82.455 406.2825,82.455 C402.9155,82.455 401.5505,78.178 401.5505,72.354 C401.5505,59.796 407.9205,40.231 415.5645,40.231 C418.9315,40.231 420.5695,43.234 421.0245,46.783 L422.2985,40.504 L424.3005,40.504 C423.2995,44.508 419.5685,65.165 416.5655,82.273 C421.5705,76.813 427.0305,70.079 430.9435,59.887 Z M415.4735,40.959 C409.2855,40.959 403.0065,61.434 403.0065,73.264 C403.0065,78.178 404.0985,81.545 406.6465,81.545 C410.7415,81.545 415.8375,69.715 419.2045,56.793 L419.9325,53.062 C420.0235,52.061 420.1145,51.06 420.1145,50.059 C420.1145,45.418 418.8405,40.959 415.4735,40.959 Z M404.5535,101.929 C404.3715,102.748 404.3715,103.476 404.3715,104.113 C404.3715,107.298 405.6455,108.754 407.2835,108.754 C409.1945,108.754 410.5595,106.661 411.1965,103.112 L414.1085,86.277 C409.3765,91.282 405.4635,95.741 404.5535,101.929 Z" id="OurWedding"></path>
        </g>
    </g>
</svg>